HIERARCHY
ROOT root
{
	OFFSET 0.0000 0.0000 0.0000
	CHANNELS 6 Xposition Yposition Zposition Zrotation Xrotation Yrotation
	JOINT rfemur
	{
		OFFSET -7.7032 -9.8555 2.1513
		CHANNELS 3 Zrotation Xrotation Yrotation
		JOINT rtibia
		{
			OFFSET -7.1353 -40.4666 0.0000
			CHANNELS 3 Zrotation Xrotation Yrotation
			JOINT rfoot
			{
				OFFSET -6.6645 -37.7961 0.0000
				CHANNELS 3 Zrotation Xrotation Yrotation
				JOINT rtoes
				{
					OFFSET -3.4134 -6.6508 11.8768
					CHANNELS 3 Zrotation Xrotation Yrotation
					End Site
					{
						OFFSET 0.0000 0.0000 0.0000
					}
				}
			}
		}
	}
	JOINT lfemur
	{
		OFFSET 8.5590 -9.8555 2.1513
		CHANNELS 3 Zrotation Xrotation Yrotation
		JOINT ltibia
		{
			OFFSET 7.2751 -41.2593 0.0000
			CHANNELS 3 Zrotation Xrotation Yrotation
			JOINT lfoot
			{
				OFFSET 6.5686 -37.2525 -0.0000
				CHANNELS 3 Zrotation Xrotation Yrotation
				JOINT ltoes
				{
					OFFSET 3.2326 -4.1860 10.4122
					CHANNELS 3 Zrotation Xrotation Yrotation
					End Site
					{
						OFFSET -0.0000 -0.0000 0.0000
					}
				}
			}
		}
	}
	JOINT lowerback
	{
		OFFSET 0.0000 0.0000 0.0000
		CHANNELS 3 Zrotation Xrotation Yrotation
		JOINT upperback
		{
			OFFSET -0.2975 11.0962 -0.4289
			CHANNELS 3 Zrotation Xrotation Yrotation
			JOINT thorax
			{
				OFFSET -0.0009 11.0405 -0.3169
				CHANNELS 3 Zrotation Xrotation Yrotation
				JOINT neck
				{
					OFFSET 0.1944 11.1642 0.0841
					CHANNELS 3 Zrotation Xrotation Yrotation
					JOINT head
					{
						OFFSET 1.6277 15.5530 -0.6089
						CHANNELS 3 Zrotation Xrotation Yrotation
						End Site
						{
							OFFSET -0.0000 0.0000 0.0000
						}
					}
				}
			}
			JOINT lshoulderjoint
			{
				OFFSET -0.0009 11.0405 -0.3169
				CHANNELS 3 Zrotation Xrotation Yrotation
				JOINT lhumerus
				{
					OFFSET 14.1669 18.7170 0.1105
					CHANNELS 3 Zrotation Xrotation Yrotation
					JOINT lradius
					{
						OFFSET 29.5186 0.0000 0.0000
						CHANNELS 3 Zrotation Xrotation Yrotation
						JOINT lhand
						{
							OFFSET 23.9354 0.0000 0.0000
							CHANNELS 3 Zrotation Xrotation Yrotation
							End Site
							{
								OFFSET 0.0000 -0.0000 0.0000
							}
						}
					}
				}
			}
			JOINT rshoulderjoint
			{
				OFFSET -0.0009 11.0405 -0.3169
				CHANNELS 3 Zrotation Xrotation Yrotation
				JOINT rhumerus
				{
					OFFSET -14.2042 18.2168 -0.2511
					CHANNELS 3 Zrotation Xrotation Yrotation
					JOINT rradius
					{
						OFFSET -29.7619 0.0000 0.0000
						CHANNELS 3 Zrotation Xrotation Yrotation
						JOINT rhand
						{
							OFFSET -25.1658 0.0000 0.0000
							CHANNELS 3 Zrotation Xrotation Yrotation
							End Site
							{
								OFFSET 0.0000 0.0000 0.0000
							}
						}
					}
				}
			}
		}
	}
}
MOTION
Frames: 22
Frame Time: 0.008333
0.0000 185.5946 770.2336 0.0000 0.0000 0.0000 1.7000 -26.1683 0.0000 0.0000 -0.0000 0.0000 0.0000 0.0000 0.0000 0.0000 0.0000 0.0000 -1.0000 0.6782 0.0000 0.0000 0.0000 0.0000 0.0000 0.0000 0.0000 0.0000 0.0000 0.0000 -1.3510 -12.7965 1.5819 -0.1497 -1.5100 2.3388 2.2512 14.9700 0.9199 -5.2647 0.0000 -10.2300 10.0400 0.0000 -10.7804 -91.1481 -2.7554 -166.3706 -15.9024 8.1771 -176.3449 -0.0000 -0.0000 -75.4288 18.2640 -34.9979 13.4754 83.8632 1.5663 166.8497 3.8560 8.9535 144.8354 -0.0000 -0.0000 48.0682 -18.4841 -38.1907 -14.3078 
0.0000 185.5731 771.4326 0.0000 0.0000 0.0000 1.7000 -24.7998 0.0000 0.0000 -0.0000 0.0000 0.0000 0.0000 0.0000 0.0000 0.0000 0.0000 -1.0000 1.3653 0.0000 0.0000 0.0000 0.0000 0.0000 0.0000 0.0000 0.0000 0.0000 0.0000 -1.5900 -13.1048 1.1900 -0.3600 -1.5100 1.8800 2.0600 14.9700 0.7000 -5.1500 0.0000 -10.2300 10.0400 0.0000 -10.7900 -90.8900 -2.4400 -166.6000 -15.5200 8.3300 -175.8000 -0.0000 -0.0000 -74.9700 17.7000 -35.8200 15.1100 84.1500 1.2700 167.0600 3.7700 9.0300 145.1700 -0.0000 -0.0000 48.0300 -18.7900 -38.6400 -14.2600 
0.0000 185.5360 772.6703 0.0000 0.0000 0.0000 1.7000 -23.3304 0.0000 0.0000 -0.0000 0.0000 0.0000 0.0000 0.0000 0.0000 0.0000 0.0000 -1.0000 2.0747 0.0000 0.0000 0.0000 0.0000 0.0000 0.0000 0.0000 0.0000 0.0000 0.0000 -2.0393 -13.4316 1.0371 -0.5416 -1.5100 1.7653 2.2703 14.9700 0.6140 -5.1500 0.0000 -10.1249 10.0496 0.0000 -10.6944 -91.0429 -2.3731 -166.6000 -15.1185 8.4065 -175.1978 -0.0000 -0.0000 -74.4347 17.8338 -36.8237 15.2821 84.2074 1.2509 167.0696 3.7604 9.3454 145.4950 -0.0000 -0.0000 48.0682 -19.4591 -38.6113 -14.1262 
0.0000 185.5254 773.8794 0.0000 0.0000 0.0000 1.7000 -21.9007 0.0000 0.0000 0.0000 0.0000 0.0000 0.0000 0.0000 0.0000 0.0000 0.0000 -1.0000 2.6994 0.0000 0.0000 0.0015 0.0000 0.0000 0.0000 0.0000 0.0000 0.0000 0.0000 -2.3426 -13.7398 1.0756 -0.6321 -1.5100 1.8785 2.5444 14.9700 0.6282 -5.1774 0.0000 -9.9924 10.0135 0.0000 -10.5806 -91.3782 -2.5250 -166.4450 -14.8082 8.4829 -174.6503 -0.0000 -0.0000 -73.8721 17.7306 -37.5447 15.4359 83.9821 1.4232 166.9606 3.5959 9.9618 145.8109 -0.0000 -0.0000 48.1156 -19.4900 -38.1906 -14.3479 
0.0000 185.8130 774.6029 0.0000 0.0000 0.0000 1.7000 -21.4546 0.0000 0.0000 0.0000 0.0000 0.0000 0.0000 0.0000 0.0000 0.0000 0.0000 -1.0000 2.5158 0.0000 0.0000 0.1245 0.0000 0.0000 0.0000 0.0000 0.0000 0.0000 0.0000 -2.5175 -13.7792 1.1407 -0.7441 -1.5100 2.0115 2.6741 14.9700 0.6734 -5.1713 0.0000 -9.8846 10.0013 0.0000 -10.4832 -91.5054 -2.5747 -166.4213 -14.2854 8.5334 -174.0621 -0.0000 -0.0000 -73.3515 17.2688 -37.8269 15.4326 83.8125 1.4574 166.9326 3.4499 10.3410 146.1437 -0.0000 -0.0000 48.1807 -19.5768 -38.3322 -14.0576 
0.0000 186.0860 775.3054 0.0000 0.0000 0.0000 1.7000 -21.0228 0.0000 0.0000 0.0000 0.0000 0.0000 0.0000 0.0000 0.0000 0.0000 0.0000 -1.0000 2.2586 0.0000 0.0000 0.4414 0.0000 0.0000 0.0000 0.0000 0.0000 0.0000 0.0000 -2.7047 -13.8054 1.1253 -0.9329 -1.5100 2.0465 2.6818 14.9700 0.6882 -5.0712 0.0000 -9.8206 10.1565 0.0000 -10.4206 -91.5282 -2.4071 -166.5106 -13.7571 8.4824 -173.4529 -0.0000 -0.0000 -72.8435 16.6976 -38.3788 15.8088 83.8559 1.3118 166.9712 3.3971 10.9088 146.5935 -0.0000 -0.0000 48.2888 -19.3512 -38.0141 -14.3641 
0.0000 186.3452 775.9873 0.0000 0.0000 0.0000 1.7000 -20.6048 0.0000 0.0000 0.0000 0.0000 0.0000 0.0000 0.0000 0.0000 0.0000 0.0000 -1.0000 1.9292 0.0000 0.0000 0.9465 0.0000 0.0000 0.0000 0.0000 0.0000 0.0000 0.0000 -2.9972 -13.8187 1.0810 -1.1493 -1.5100 2.0578 2.7579 14.9700 0.6744 -4.8551 0.0000 -9.8100 10.0419 0.0000 -10.4100 -91.6235 -2.1674 -166.5768 -13.3872 8.6181 -172.8724 -0.0000 -0.0000 -72.3681 17.1356 -39.4487 16.7707 83.7921 1.0851 166.9566 3.3588 11.4799 147.2646 -0.0000 -0.0000 48.3879 -18.9337 -37.5269 -14.9310 
0.0000 186.5911 776.6483 0.0000 0.0000 0.0000 1.7000 -20.2008 0.0000 0.0000 0.0000 0.0000 0.0000 0.0000 0.0000 0.0000 0.0000 0.0000 -1.0000 1.5271 0.0000 0.0000 1.6389 0.0000 0.0000 0.0000 0.0000 0.0000 0.0000 0.0000 -3.2171 -13.8190 0.9965 -1.3176 -1.5100 2.0012 2.7800 14.9700 0.6332 -4.7338 0.0000 -9.7585 10.0294 0.0000 -10.3585 -91.6574 -2.0218 -166.6268 -12.9571 8.5276 -172.2253 -0.0000 -0.0000 -71.9585 17.6209 -40.3891 17.7112 83.8582 0.9638 166.9721 3.4015 12.0144 148.0035 -0.0000 -0.0000 48.5276 -18.7050 -37.5497 -15.2097 
0.0000 186.8243 777.2889 0.0000 0.0000 0.0000 1.7000 -19.8101 0.0000 0.0000 0.0000 0.0000 0.0000 0.0000 0.0000 0.0000 0.0000 0.0000 -1.0000 1.0546 0.0000 0.0000 2.5098 0.0000 0.0000 0.0000 0.0000 0.0000 0.0000 0.0000 -3.3599 -13.8067 0.9354 -1.4982 -1.5100 1.9524 2.7247 14.9700 0.6062 -4.6409 0.0000 -9.6432 10.1368 0.0000 -10.2501 -91.6531 -1.9001 -166.7229 -12.5535 8.3763 -171.4732 -0.0000 -0.0000 -71.5874 16.4821 -40.3674 18.5268 83.8347 0.8432 167.0422 3.2818 12.8304 148.7629 -0.0000 -0.0000 48.6806 -18.8397 -37.8626 -15.1771 
0.0000 187.0456 777.9096 0.0000 0.0000 0.0000 1.7000 -19.4326 0.0000 0.0000 0.0000 0.0000 0.0000 0.0000 0.0000 0.0000 0.0000 0.0000 -1.0000 0.5136 0.0000 0.0000 3.5496 0.0000 0.0000 0.0000 0.0000 0.0000 0.0000 0.0000 -3.5165 -13.7822 0.8747 -1.6959 -1.5100 1.9076 2.6547 14.9700 0.5871 -4.5647 0.0000 -9.5482 10.1412 0.0000 -10.1518 -91.6176 -1.8471 -166.8376 -12.1518 8.4918 -170.7218 -0.0000 -0.0000 -71.2306 15.2600 -39.8876 19.1488 83.7971 0.7871 167.1541 3.2200 13.5894 149.5471 -0.0000 -0.0000 48.8335 -19.1465 -38.1741 -15.0235 
0.0000 187.2554 778.5104 0.0000 0.0000 0.0000 1.7000 -19.0680 0.0000 0.0000 0.0000 0.0000 0.0000 0.0000 0.0000 0.0000 0.0000 0.0000 -1.0000 -0.0952 0.0000 0.0000 4.7523 0.0000 0.0000 0.0000 0.0000 0.0000 0.0000 0.0000 -3.7790 -13.7455 0.8018 -1.9268 -1.5100 1.8840 2.6782 14.9700 0.5619 -4.4496 0.0000 -9.5019 9.9693 0.0000 -10.0959 -91.6724 -1.7676 -166.8257 -11.7407 8.6825 -170.0521 -0.0000 -0.0000 -70.8709 15.1593 -39.4247 19.4706 83.7538 0.7076 167.1337 3.3828 14.1475 150.4309 -0.0000 -0.0000 49.0226 -19.0710 -38.0449 -14.8696 
0.0000 187.4543 779.0917 0.0000 0.0000 0.0000 1.7000 -18.7159 0.0000 0.0000 0.0000 0.0000 0.0000 0.0000 0.0000 0.0000 0.0000 0.0000 -1.0000 -0.7690 0.0000 0.0000 6.1049 0.0000 0.0000 0.0000 0.0000 0.0000 0.0000 0.0000 -4.1335 -13.6973 0.7197 -2.0915 -1.5100 1.8521 2.8553 14.9700 0.5165 -4.4906 0.0000 -9.4844 9.9482 0.0000 -10.0856 -91.7815 -1.6418 -166.8291 -11.4024 8.8841 -169.3653 -0.0000 -0.0000 -70.5132 14.9724 -39.0712 19.7176 83.6406 0.5762 167.1068 3.5962 14.5009 151.4068 -0.0000 -0.0000 49.2162 -18.6494 -37.7950 -14.7094 
0.0000 187.6431 779.6544 0.0000 0.0000 0.0000 1.7000 -18.3759 0.0000 0.0000 0.0000 0.0000 0.0000 0.0000 0.0000 0.0000 0.0000 0.0000 -1.0000 -1.5048 0.0000 0.0000 7.5941 0.0000 0.0000 0.0000 0.0000 0.0000 0.0000 0.0000 -4.4593 -13.6379 0.6388 -2.1709 -1.5100 1.7940 3.0678 14.9700 0.4643 -4.6987 0.0000 -9.4491 10.1644 0.0000 -10.0694 -91.8403 -1.5234 -167.0093 -11.1516 9.0466 -168.5874 -0.0000 -0.0000 -70.1596 12.4099 -38.9815 20.8279 83.5288 0.4585 167.2538 3.7469 14.8465 152.3229 -0.0000 -0.0000 49.4184 -18.4200 -37.7097 -14.3263 
0.0000 187.8222 780.1986 0.0000 0.0000 0.0000 1.7000 -18.0476 0.0000 0.0000 0.0000 0.0000 0.0000 0.0000 0.0000 0.0000 0.0000 0.0000 -1.0000 -2.3011 0.0000 0.0000 9.2091 0.0000 0.0000 0.0000 0.0000 0.0000 0.0000 0.0000 -4.6847 -13.5677 0.5529 -2.2894 -1.5100 1.7176 3.1412 14.9700 0.4212 -4.8012 0.0000 -9.3965 10.3618 0.0000 -10.0265 -91.8876 -1.4182 -167.2394 -10.9459 8.8553 -167.8076 -0.0000 -0.0000 -69.8341 10.6506 -40.0418 21.0535 83.5229 0.3865 167.4694 3.9418 15.3894 153.1876 -0.0000 -0.0000 49.6665 -18.5188 -37.6059 -13.9694 
0.0000 187.9921 780.7252 0.0000 0.0000 0.0000 1.7000 -17.7306 0.0000 0.0000 0.0000 0.0000 0.0000 0.0000 0.0000 0.0000 0.0000 0.0000 -1.0000 -3.1541 0.0000 0.0000 10.9334 0.0000 0.0000 0.0000 0.0000 0.0000 0.0000 0.0000 -4.7629 -13.4873 0.4744 -2.4753 -1.5100 1.6359 3.0049 14.9700 0.3915 -4.7160 0.0000 -9.3657 10.3304 0.0000 -9.9872 -91.8959 -1.3088 -167.4296 -10.7334 8.4691 -167.0290 -0.0000 -0.0000 -69.5378 10.7659 -41.2440 20.3851 83.5941 0.3131 167.6510 4.2137 15.9349 154.1065 -0.0000 -0.0000 49.9266 -18.4893 -37.5341 -14.0734 
0.0000 188.1537 781.2351 0.0000 0.0000 0.0000 1.7000 -17.4242 0.0000 0.0000 0.0000 0.0000 0.0000 0.0000 0.0000 0.0000 0.0000 0.0000 -1.0000 -4.0600 0.0000 0.0000 12.7505 0.0000 0.0000 0.0000 0.0000 0.0000 0.0000 0.0000 -4.6865 -13.3974 0.4018 -2.5785 -1.5100 1.5174 2.7812 14.9700 0.3571 -4.6950 0.0000 -9.3524 10.2138 0.0000 -9.9700 -91.7850 -1.1750 -167.6532 -10.5288 8.4194 -166.1782 -0.0000 -0.0000 -69.2644 10.1618 -41.3032 20.6547 83.7394 0.2003 167.8556 4.5253 16.2771 155.0662 -0.0000 -0.0000 50.1694 -18.3879 -37.4691 -14.0982 
0.0000 188.3072 781.7288 0.0000 0.0000 0.0000 1.7000 -17.1279 0.0000 0.0000 0.0000 0.0000 0.0000 0.0000 0.0000 0.0000 0.0000 0.0000 -1.0000 -5.0160 0.0000 0.0000 14.6454 0.0000 0.0000 0.0000 0.0000 0.0000 0.0000 0.0000 -4.5729 -13.2984 0.2825 -2.5228 -1.5100 1.3087 2.6429 14.9700 0.2794 -4.8947 0.0000 -9.3163 10.2538 0.0000 -9.9565 -91.6225 -1.0666 -167.8674 -10.3826 8.6510 -165.2853 -0.0000 -0.0000 -69.0356 9.7074 -41.3344 20.8163 84.0015 0.1301 168.0641 4.9156 16.4060 156.0215 -0.0000 -0.0000 50.4416 -18.5469 -37.2968 -13.5032 
0.0000 188.4534 782.2075 0.0000 0.0000 0.0000 1.7000 -16.8411 0.0000 0.0000 0.0000 0.0000 0.0000 0.0000 0.0000 0.0000 0.0000 0.0000 -1.0000 -6.0176 0.0000 0.0000 16.5991 0.0000 0.0000 0.0000 0.0000 0.0000 0.0000 0.0000 -4.4906 -13.1912 0.1229 -2.4382 -1.5100 1.0624 2.5429 14.9700 0.1706 -5.1094 0.0000 -9.2406 10.3259 0.0000 -9.9065 -91.4571 -1.0276 -167.9747 -10.2341 8.8165 -164.3500 -0.0000 -0.0000 -68.8400 9.1735 -41.4800 20.7259 84.2353 0.1147 168.1876 5.3141 16.3171 156.9847 -0.0000 -0.0000 50.7365 -18.6888 -37.3600 -12.8694 
0.0000 188.5930 782.6725 0.0000 0.0000 0.0000 1.7000 -16.5630 0.0000 0.0000 0.0000 0.0000 0.0000 0.0000 0.0000 0.0000 0.0000 0.0000 -1.0000 -7.0599 0.0000 0.0000 18.5932 0.0000 0.0000 0.0000 0.0000 0.0000 0.0000 0.0000 -4.3650 -13.0766 -0.0200 -2.3900 -1.5100 0.8475 2.3775 14.9700 0.0825 -5.2075 0.0000 -9.1500 10.3575 0.0000 -9.8250 -91.3025 -0.8925 -168.0475 -10.0700 8.8975 -163.3675 -0.0000 -0.0000 -68.6825 8.5900 -41.4725 20.7375 84.3675 -0.0200 168.2575 5.6275 16.2825 158.0050 -0.0000 -0.0000 50.9900 -19.1575 -37.5300 -12.3025 
0.0000 188.7263 783.1247 0.0000 0.0000 0.0000 1.7000 -16.2929 0.0000 0.0000 0.0000 0.0000 0.0000 0.0000 0.0000 0.0000 0.0000 0.0000 -1.0000 -8.1392 0.0000 0.0000 20.6090 0.0000 0.0000 0.0000 0.0000 0.0000 0.0000 0.0000 -4.1321 -12.9552 -0.1450 -2.3094 -1.5100 0.6324 2.1479 14.9700 0.0094 -5.2838 0.0000 -9.0982 10.3544 0.0000 -9.7521 -91.1500 -0.6768 -168.1744 -9.9347 8.9294 -162.3762 -0.0000 -0.0000 -68.5350 8.0359 -41.5324 21.0571 84.5924 -0.2112 168.3482 5.9826 16.1424 159.0326 -0.0000 -0.0000 51.2659 -19.8459 -37.7191 -11.8074 
0.0000 188.8540 783.5655 0.0000 0.0000 0.0000 1.7000 -16.0299 0.0000 0.0000 0.0000 0.0000 0.0000 0.0000 0.0000 0.0000 0.0000 0.0000 -1.0000 -9.2499 0.0000 0.0000 22.6268 0.0000 0.0000 0.0000 0.0000 0.0000 0.0000 0.0000 -3.8393 -12.8280 -0.2994 -2.2025 -1.5100 0.3760 1.8538 14.9700 -0.0829 -5.2843 0.0000 -9.1219 10.1416 0.0000 -9.7535 -90.8671 -0.4857 -168.2268 -9.7551 8.8484 -161.4121 -0.0000 -0.0000 -68.3919 7.7338 -41.8775 20.9219 84.9326 -0.3926 168.3751 6.3966 15.8828 160.1241 -0.0000 -0.0000 51.5685 -20.1485 -37.8846 -11.6731 
0.0000 188.9768 783.9965 0.0000 0.0000 0.0000 1.7000 -15.7731 0.0000 0.0000 0.0000 0.0000 0.0000 0.0000 0.0000 0.0000 0.0000 0.0000 -1.0000 -10.3866 0.0000 0.0000 24.6271 0.0000 0.0000 0.0000 0.0000 0.0000 0.0000 0.0000 -3.6624 -12.6960 -0.4165 -2.0259 -1.5100 0.1718 1.7747 14.9700 -0.1629 -5.4559 0.0000 -9.0612 10.1700 0.0000 -9.7059 -90.7882 -0.3412 -168.2276 -9.7147 8.8318 -160.3571 -0.0000 -0.0000 -68.3441 7.6265 -42.0329 20.8906 85.0571 -0.5288 168.3653 6.7194 15.6571 161.2453 -0.0000 -0.0000 51.8659 -20.5365 -37.9424 -11.2935 
